<svg width="106" height="105" viewBox="0 0 106 105" fill="none" xmlns="http://www.w3.org/2000/svg">
<path d="M105.849 80.6047C106.293 74.2728 105.413 68.0438 103.612 61.9774C102.237 57.3427 100.577 52.6913 97.8517 48.6463C96.0989 46.0445 94.4815 43.3046 92.4368 40.9199C91.0031 39.2483 89.5693 37.5742 88.133 35.9027C87.6977 35.3958 87.2611 34.885 86.822 34.3769C86.7509 34.293 87.2737 33.2075 87.3107 32.8737C87.4452 31.7067 84.7644 30.3607 83.8671 29.6679C83.4558 29.3487 82.2248 29.5137 81.7159 29.4805C80.3115 29.3929 78.9217 28.8699 77.6371 28.2987C74.1216 26.7393 70.8109 23.9118 68.3371 20.9675C67.9211 20.4697 67.4759 19.7765 66.973 19.3656C66.7215 19.1602 66.264 19.0964 66.0547 18.8539C65.8183 18.5766 65.719 17.9403 65.5954 17.6045C65.3442 16.9237 65.3315 16.6732 64.7414 16.3107C63.7958 15.7282 62.8477 15.1457 61.9008 14.5645C56.1873 11.0499 50.3173 8.14607 43.8931 6.18886C42.3842 5.72828 40.8664 5.2972 39.3524 4.85715C39.0926 4.78141 39.0697 4.84039 38.8084 4.98303C38.5791 5.11168 38.2505 4.90075 38.0112 4.81997C37.4451 4.62975 36.8659 4.38809 36.2781 4.50348C35.7148 4.61257 35.2796 4.68629 34.7721 4.37047C33.8122 3.77375 33.4331 3.18236 32.3526 3.95053C31.5857 4.4954 31.734 4.07863 31.3119 3.64374C30.8072 3.12369 29.8428 2.37409 29.2262 3.17658C28.6045 3.45238 28.3181 3.72334 27.7281 3.36859C27.3313 3.13036 27.4267 2.38963 27.0718 2.03471C26.6872 1.6501 26.1503 1.67068 25.6914 1.86889C24.9133 2.20818 24.5806 2.73969 23.8649 2.1544C23.4213 1.79007 23.0103 0.440646 22.2761 1.38901C21.2931 2.65861 20.0056 0.409725 19.0712 0.569722C18.1433 0.728465 17.3604 1.14994 16.552 1.59184C15.8345 1.98408 15.9847 2.23399 15.9539 3.06237C15.3827 2.87983 14.602 2.39572 14.0549 2.695C13.3605 3.07964 12.6661 3.46428 11.9704 3.84763C10.4535 4.68053 8.93138 5.50828 7.42608 6.35793C6.05403 7.13629 4.47143 7.66573 2.93677 8.01299C2.31573 8.15392 0.899021 8.1819 0.421783 8.5817C-0.558273 9.4043 1.93127 12.1444 2.39719 12.8814C2.69872 13.3542 2.66012 13.8833 2.79755 14.4221C3.02531 15.3198 3.25564 16.2175 3.48468 17.1165C4.30143 20.3265 5.87695 23.4567 8.79721 25.1956C13.222 27.8306 19.228 27.4467 23.1598 24.1551C23.6626 23.7323 24.1217 23.2939 24.587 22.8285C24.6818 23.5855 25.7898 22.9215 26.1644 22.8231C27.405 22.4963 28.6276 22.1591 29.9301 22.1653C32.8743 22.1792 34.7126 24.3832 36.4707 26.4583C36.9654 27.04 37.4723 26.6596 38.1769 26.5306C39.6413 26.2588 41.0855 26.0691 42.5866 26.2406C46.0708 26.6361 49.0865 28.7133 50.708 31.8C51.2823 32.8933 51.1224 33.0377 52.2997 32.6502C53.9504 32.1069 55.9425 32.0791 57.65 32.4083C61.0378 33.0628 63.7831 35.8234 64.3118 39.2492C64.5954 41.0899 64.4084 43.1019 63.8516 44.8668C63.6187 45.5979 62.3471 47.5174 62.8824 48.2726C63.2885 48.8475 66.3312 50.1387 67.0104 50.0713C68.0068 49.9809 67.5373 49.0256 68.567 49.4698C69.1617 49.7295 69.7179 50.0019 70.2884 50.3064C72.6915 51.5998 75.0394 52.9147 77.287 54.477C81.2667 57.2448 84.8609 60.5219 87.9665 64.2335C91.997 69.0439 95.0321 75.2317 96.9703 81.1536C99.3307 88.362 100.101 96.6932 98.4804 104.111C100.83 101.153 102.25 97.2879 103.377 93.7145C104.726 89.4639 105.501 85.0488 105.849 80.6047ZM19.7946 8.20968C20.8694 9.22827 22.0209 10.1444 22.6824 11.504C23.9134 14.0288 23.6014 17.5881 22.2099 19.9604C20.7203 22.5032 18.0336 24.2451 15.0835 24.3455C12.7859 24.4233 11.1886 23.7465 9.49916 22.3358C7.93613 21.031 7.08617 20.0302 6.56372 17.9326C5.99662 15.6319 6.35457 13.911 7.32371 11.8681C8.28268 9.84821 10.044 8.53347 12.0122 7.5126C14.0188 6.47392 18.0212 6.68683 19.7946 8.20968Z" fill="white"/>
</svg>
